<svg width="22" height="22" viewBox="0 0 33 33" fill="none" xmlns="http://www.w3.org/2000/svg">
<path d="M16.734 0.75C7.902 0.75 0.75 7.918 0.75 16.75C0.75 25.582 7.902 32.75 16.734 32.75C25.582 32.75 32.75 25.582 32.75 16.75C32.75 7.918 25.582 0.75 16.734 0.75ZM16.75 29.55C9.678 29.55 3.95 23.822 3.95 16.75C3.95 9.678 9.678 3.95 16.75 3.95C23.822 3.95 29.55 9.678 29.55 16.75C29.55 23.822 23.822 29.55 16.75 29.55ZM16.398 8.75H16.302C15.662 8.75 15.15 9.262 15.15 9.902V17.454C15.15 18.014 15.438 18.542 15.934 18.83L22.574 22.814C23.118 23.134 23.822 22.974 24.142 22.43C24.2223 22.3004 24.2758 22.156 24.2992 22.0054C24.3225 21.8548 24.3153 21.701 24.278 21.5532C24.2407 21.4053 24.174 21.2666 24.0819 21.1451C23.9898 21.0236 23.8742 20.9219 23.742 20.846L17.55 17.166V9.902C17.55 9.262 17.038 8.75 16.398 8.75Z" fill="#F0F4F8"/>
</svg>
