<svg width="39" height="25" viewBox="0 0 39 25" fill="none" xmlns="http://www.w3.org/2000/svg">
<path d="M19.5 0.25C10.1813 0.25 0.75 3.14875 0.75 8.6875V16.1875C0.75 21.7262 10.1813 24.625 19.5 24.625C28.8187 24.625 38.25 21.7262 38.25 16.1875V8.6875C38.25 3.14875 28.8187 0.25 19.5 0.25ZM4.5 16.1875V13.9431C5.68752 14.6156 6.94499 15.1564 8.25 15.5556V19.0825C5.79 18.1188 4.5 16.9713 4.5 16.1875ZM27 16.465V20.1606C25.3744 20.4962 23.4994 20.7419 21.375 20.8319V17.0819C23.262 17.0067 25.1415 16.8006 27 16.465V16.465ZM17.625 20.8338C15.735 20.7614 13.8539 20.5369 12 20.1625V16.4669C13.7981 16.7931 15.6975 17.005 17.625 17.0856V20.8338ZM30.75 19.0825V15.5556C32.0553 15.1572 33.3129 14.6164 34.5 13.9431V16.1875C34.5 16.9713 33.2119 18.1188 30.75 19.0825ZM19.5 13.375C9.79312 13.375 4.5 10.2794 4.5 8.6875C4.5 7.09563 9.79312 4 19.5 4C29.2069 4 34.5 7.09563 34.5 8.6875C34.5 10.2794 29.2069 13.375 19.5 13.375Z" fill="#F9C50D"/>
</svg>
