<svg width="25" height="25" viewBox="0 0 25 32" fill="none" xmlns="http://www.w3.org/2000/svg">
<path d="M24.7722 15.3945C23.1722 13.7056 21.0389 12.55 18.8167 12.1056C17.8389 11.8389 16.8611 11.6611 15.8833 11.5723C18.3722 8.63892 17.9278 4.19447 14.9945 1.70558C12.0611 -0.783305 7.61667 -0.338861 5.12779 2.59447C2.6389 5.52781 3.08334 9.97225 6.01667 12.4611C6.55001 12.9056 7.08334 13.2611 7.61667 13.4389V15.3945L6.19445 14.0611C4.95001 12.8167 2.90556 12.8167 1.57223 14.0611C0.327785 15.3056 0.238895 17.2611 1.48334 18.5056L5.57223 23.3056C5.75001 24.55 6.19445 25.7056 6.81667 26.7723C7.26112 27.5723 7.88334 28.3723 8.50556 28.9945V30.6834C8.50556 31.2167 8.86112 31.5723 9.39445 31.5723H21.4833C21.9278 31.5723 22.3722 31.1278 22.3722 30.6834V28.3723C24.0611 26.3278 24.95 23.75 24.95 21.1723V16.0167C25.0389 15.6611 24.95 15.4834 24.7722 15.3945ZM5.21667 7.03892C5.21667 4.10558 7.61667 1.79447 10.55 1.88336C13.4833 1.88336 15.7945 4.28336 15.7056 7.21669C15.7056 8.8167 14.9945 10.2389 13.75 11.2167V6.77225C13.7046 6.00191 13.3663 5.27812 12.8043 4.74924C12.2424 4.22036 11.4995 3.92647 10.7278 3.92781C9.12779 3.83892 7.70556 5.17225 7.70556 6.77225V11.3945C6.19445 10.5056 5.30556 8.8167 5.21667 7.03892ZM23.2611 21.0834C23.35 23.3945 22.55 25.6167 21.0389 27.3945C20.8611 27.5723 20.6833 27.75 20.6833 28.0167V29.8834H10.3722V28.6389C10.3722 28.3723 10.1945 28.1056 10.0167 27.9278C9.39445 27.3945 8.86112 26.7723 8.41667 25.9723C7.88334 25.0834 7.52779 24.0167 7.35001 22.95C7.35001 22.7723 7.26112 22.5945 7.17223 22.4167L2.90556 17.35C2.6389 17.0834 2.46112 16.7278 2.46112 16.2834C2.46112 15.9278 2.6389 15.4834 2.90556 15.2167C3.52779 14.6834 4.41667 14.6834 5.0389 15.2167L7.61667 17.7945V20.4611L9.30556 19.5723V6.77225C9.39445 6.15003 9.92779 5.61669 10.6389 5.70558C11.2611 5.70558 11.8833 6.15003 11.8833 6.77225V16.9945L13.6611 17.35V13.2611C13.75 13.1723 13.8389 13.1723 13.9278 13.0834C14.55 13.0834 15.1722 13.1723 15.7945 13.2611V17.7945L17.2167 18.0611V13.4389L18.2833 13.7056C18.7278 13.7945 19.1722 13.9723 19.6167 14.15V18.5945L21.0389 18.8611V14.7723C21.8389 15.1278 22.55 15.6611 23.1722 16.2834L23.2611 21.0834Z" fill="#F0F4F8"/>
</svg>
