<svg width="32" height="32" viewBox="0 0 32 32" fill="none" xmlns="http://www.w3.org/2000/svg">
<path d="M30.6987 15.4043C30.7072 15.3514 30.7072 15.2979 30.6987 15.245C29.1086 12.412 26.1005 10.1543 22.3147 8.95263V3.18599H24.448C25.0138 3.18599 25.5564 3.01816 25.9565 2.71941C26.3566 2.42067 26.5813 2.01548 26.5813 1.593C26.5813 1.17051 26.3566 0.765322 25.9565 0.466577C25.5564 0.167833 25.0138 0 24.448 0H7.38134C6.81554 0 6.27292 0.167833 5.87284 0.466577C5.47276 0.765322 5.248 1.17051 5.248 1.593C5.248 2.01548 5.47276 2.42067 5.87284 2.71941C6.27292 3.01816 6.81554 3.18599 7.38134 3.18599H9.51467V8.95263C5.74098 10.1867 2.76282 12.4734 1.216 15.3246C1.20751 15.3775 1.20751 15.431 1.216 15.4839C0.210011 17.2991 -0.181062 19.2714 0.0774192 21.2264C0.3359 23.1813 1.23596 25.0585 2.69789 26.6918C4.15982 28.325 6.13852 29.6638 8.45876 30.5897C10.779 31.5156 13.3692 32 16 32C18.6308 32 21.221 31.5156 23.5412 30.5897C25.8615 29.6638 27.8402 28.325 29.3021 26.6918C30.764 25.0585 31.6641 23.1813 31.9226 21.2264C32.1811 19.2714 31.79 17.2991 30.784 15.4839L30.6987 15.4043ZM12.3093 11.5651C12.737 11.461 13.1097 11.2586 13.3741 10.9868C13.6385 10.715 13.781 10.3877 13.7813 10.0518V3.18599H18.048V10.0518C18.0483 10.3877 18.1909 10.715 18.4552 10.9868C18.7196 11.2586 19.0923 11.461 19.52 11.5651C21.6465 12.0794 23.5284 13.042 24.9387 14.337H6.89067C8.30093 13.042 10.1828 12.0794 12.3093 11.5651ZM15.9147 28.6739C12.8045 28.6697 9.82338 27.7453 7.62418 26.1031C5.42497 24.4609 4.18698 22.2348 4.18134 19.9124C4.1848 19.1033 4.34283 18.2987 4.65067 17.5229H27.1787C27.4865 18.2987 27.6445 19.1033 27.648 19.9124C27.6424 22.2348 26.4044 24.4609 24.2052 26.1031C22.006 27.7453 19.0248 28.6697 15.9147 28.6739ZM20.1813 22.3019C19.7594 22.3019 19.3469 22.3954 18.9961 22.5704C18.6453 22.7454 18.3719 22.9942 18.2104 23.2853C18.0489 23.5764 18.0067 23.8967 18.089 24.2057C18.1713 24.5147 18.3745 24.7986 18.6728 25.0213C18.9712 25.2441 19.3513 25.3958 19.7651 25.4573C20.179 25.5188 20.6079 25.4872 20.9977 25.3667C21.3875 25.2461 21.7207 25.0419 21.9551 24.78C22.1895 24.518 22.3147 24.21 22.3147 23.8949C22.3147 23.4724 22.0899 23.0673 21.6898 22.7685C21.2897 22.4698 20.7471 22.3019 20.1813 22.3019ZM11.648 20.7089C11.2261 20.7089 10.8136 20.8024 10.4628 20.9774C10.112 21.1524 9.83853 21.4012 9.67706 21.6923C9.51559 21.9834 9.47334 22.3037 9.55566 22.6127C9.63797 22.9217 9.84116 23.2056 10.1395 23.4284C10.4379 23.6511 10.818 23.8029 11.2318 23.8643C11.6456 23.9258 12.0746 23.8942 12.4644 23.7737C12.8542 23.6531 13.1874 23.4489 13.4218 23.187C13.6562 22.925 13.7813 22.617 13.7813 22.3019C13.7813 21.8794 13.5566 21.4743 13.1565 21.1755C12.7564 20.8768 12.2138 20.7089 11.648 20.7089Z" fill="#F0F4F8"/>
</svg>
